<?xml version="1.0" standalone="no"?>
<!DOCTYPE svg PUBLIC "-//W3C//DTD SVG 20010904//EN"
 "http://www.w3.org/TR/2001/REC-SVG-20010904/DTD/svg10.dtd">
<svg version="1.0" xmlns="http://www.w3.org/2000/svg"
 width="16.000000pt" height="16.000000pt" viewBox="0 0 16.000000 16.000000"
 preserveAspectRatio="xMidYMid meet">
<metadata>
Created by potrace 1.11, written by Peter Selinger 2001-2013
</metadata>
<g transform="translate(0.000000,16.000000) scale(0.002111,-0.002111)"
fill="#000000" stroke="none">
<path d="M3 5503 c2 -1116 6 -2039 9 -2053 3 -14 9 -56 13 -95 4 -38 9 -79 11
-90 2 -10 6 -37 9 -60 3 -22 8 -47 10 -55 2 -8 7 -35 10 -60 4 -24 8 -47 10
-51 2 -3 7 -21 10 -40 3 -19 19 -83 35 -144 170 -643 498 -1214 970 -1685 132
-131 170 -166 260 -240 30 -25 64 -53 74 -62 11 -10 38 -30 60 -45 23 -15 43
-31 46 -34 12 -14 203 -141 300 -199 135 -81 364 -196 506 -254 108 -44 384
-140 434 -150 14 -3 54 -12 90 -21 36 -9 73 -18 83 -20 10 -2 26 -6 35 -9 9
-3 33 -8 52 -11 19 -3 58 -10 85 -15 28 -5 70 -12 95 -15 25 -3 52 -8 60 -10
8 -2 47 -7 85 -10 39 -4 86 -9 105 -12 19 -3 953 -8 2076 -10 l2041 -4 -1
1188 -1 1188 -1970 1 c-1083 1 -1981 4 -1995 8 -14 3 -43 9 -65 12 -115 15
-303 78 -424 141 -247 130 -462 342 -593 583 -56 103 -116 278 -134 390 -3 19
-9 53 -13 76 -4 22 -7 373 -7 780 l1 739 760 0 c809 0 854 -2 1008 -41 572
-145 998 -629 1053 -1194 4 -41 7 -250 7 -463 0 -346 2 -389 16 -395 20 -9
2334 -8 2348 1 11 7 11 982 0 1037 -3 14 -8 54 -12 90 -7 77 -11 107 -31 220
-21 125 -24 142 -34 180 -5 19 -11 47 -14 62 -9 53 -70 256 -111 373 -157 442
-404 862 -715 1215 -175 200 -444 444 -630 573 -289 201 -537 336 -825 450
-116 45 -289 105 -355 123 -257 67 -412 98 -610 119 -30 4 -71 9 -90 13 -19 3
-959 8 -2088 9 l-2053 3 4 -2027z"/>
</g>
</svg>
