<?xml version="1.0" standalone="no"?>
<!DOCTYPE svg PUBLIC "-//W3C//DTD SVG 20010904//EN"
 "http://www.w3.org/TR/2001/REC-SVG-20010904/DTD/svg10.dtd">
<svg version="1.0" xmlns="http://www.w3.org/2000/svg"
 width="16.000000pt" height="16.000000pt" viewBox="0 0 16.000000 16.000000"
 preserveAspectRatio="xMidYMid meet">
<metadata>
Created by potrace 1.11, written by Peter Selinger 2001-2013
</metadata>
<g transform="translate(0.000000,16.000000) scale(0.001293,-0.001293)"
fill="#000000" stroke="none">
<path d="M3 7843 c2 -1077 6 -1969 9 -1983 3 -14 9 -56 13 -95 4 -38 8 -77 10
-85 1 -8 8 -47 15 -87 6 -39 13 -77 14 -85 2 -7 6 -31 11 -53 4 -22 16 -74 27
-115 11 -41 21 -84 24 -95 11 -54 81 -263 124 -370 98 -245 191 -425 336 -648
46 -70 88 -133 94 -140 5 -6 47 -59 92 -117 110 -140 128 -161 303 -335 426
-426 938 -731 1518 -906 70 -21 138 -41 150 -43 12 -2 49 -11 82 -19 33 -9 87
-21 120 -26 33 -6 74 -14 90 -17 40 -8 60 -11 125 -19 30 -4 66 -8 80 -11 210
-33 793 -21 995 21 11 3 37 7 58 10 124 17 367 78 537 135 377 125 731 312
1059 558 69 52 128 97 131 101 3 3 41 38 85 77 l81 72 39 -36 c109 -97 137
-120 265 -218 76 -59 253 -179 325 -220 27 -16 63 -37 80 -46 124 -72 362
-184 510 -239 163 -61 384 -128 485 -145 14 -3 33 -7 42 -10 9 -3 27 -7 40 -9
13 -3 46 -9 73 -15 28 -5 70 -12 95 -15 25 -3 52 -8 60 -10 8 -2 49 -7 90 -10
41 -4 84 -10 95 -13 11 -3 912 -8 2003 -9 l1982 -4 0 1148 0 1148 -1852 1
c-1019 0 -1891 3 -1938 7 -207 16 -423 89 -610 204 -41 26 -77 49 -80 52 -3 3
-27 24 -55 46 -420 335 -587 878 -431 1400 2 6 6 17 9 25 4 8 14 35 22 60 39
111 160 302 259 409 69 74 211 187 302 241 126 74 323 151 424 166 19 3 41 7
49 10 48 16 299 24 401 12 116 -14 271 -52 357 -89 97 -41 119 -53 188 -92
227 -132 436 -357 536 -577 38 -84 47 -105 67 -170 39 -121 47 -170 57 -315 2
-33 4 -62 4 -65 1 -3 517 -5 1147 -5 l1147 0 -7 170 c-7 177 -8 187 -31 350
-70 484 -245 959 -507 1378 -47 74 -187 276 -211 303 -7 7 -17 19 -22 26 -166
213 -437 479 -640 629 -33 24 -62 47 -65 50 -4 5 -164 113 -216 146 -118 75
-476 263 -500 263 -2 0 -23 9 -47 20 -185 86 -612 206 -832 235 -11 2 -39 6
-62 9 -159 25 -267 31 -523 31 -239 0 -364 -6 -485 -25 -33 -5 -80 -12 -105
-15 -133 -19 -378 -78 -545 -132 -481 -155 -976 -441 -1334 -770 -41 -38 -58
-48 -66 -39 -6 6 -42 38 -80 71 -37 33 -73 65 -79 70 -26 25 -189 147 -277
207 -174 119 -437 264 -634 347 -11 5 -36 16 -55 24 -141 60 -480 163 -630
191 -14 3 -61 12 -105 20 -80 16 -113 20 -215 31 -30 3 -75 9 -100 12 -25 4
-935 9 -2023 10 l-1978 3 4 -1957z m3852 -347 c17 -3 64 -13 105 -22 333 -69
642 -275 840 -558 107 -153 195 -377 217 -551 10 -79 10 -297 0 -360 -56 -349
-235 -647 -515 -858 -162 -121 -388 -224 -562 -253 -14 -3 -32 -7 -40 -9 -89
-24 -324 -24 -480 1 -212 33 -482 157 -646 296 -198 168 -345 384 -418 615
-26 85 -29 96 -48 198 -7 40 -11 304 -12 787 l-1 726 765 -3 c421 -1 779 -5
795 -9z"/>
</g>
</svg>
