<?xml version="1.0" standalone="no"?>
<!DOCTYPE svg PUBLIC "-//W3C//DTD SVG 20010904//EN"
 "http://www.w3.org/TR/2001/REC-SVG-20010904/DTD/svg10.dtd">
<svg version="1.0" xmlns="http://www.w3.org/2000/svg"
 width="16.000000pt" height="16.000000pt" viewBox="0 0 16.000000 16.000000"
 preserveAspectRatio="xMidYMid meet">
<metadata>
Created by potrace 1.11, written by Peter Selinger 2001-2013
</metadata>
<g transform="translate(0.000000,16.000000) scale(0.002353,-0.002353)"
fill="#000000" stroke="none">
<path d="M435 6788 c-198 -37 -388 -230 -424 -432 -8 -42 -11 -935 -11 -2965
0 -3224 -5 -2966 68 -3105 68 -130 213 -244 352 -275 30 -7 1011 -11 2980 -11
3239 0 2985 -5 3114 63 78 40 183 145 223 223 68 129 63 -125 63 3114 0 1969
-4 2950 -11 2980 -31 139 -145 284 -275 352 -139 73 121 68 -3114 67 -1787 -1
-2934 -5 -2965 -11z m3155 -788 c632 -57 1184 -311 1634 -749 403 -395 649
-860 753 -1426 24 -131 25 -166 30 -543 l5 -402 -828 2 -829 3 -6 340 c-5 333
-6 342 -32 428 -101 329 -356 572 -695 665 l-97 26 -573 4 -573 3 4 -553 c3
-536 4 -555 26 -632 47 -166 130 -307 250 -427 124 -124 278 -213 448 -262
l78 -22 1413 -3 1412 -2 0 -831 0 -830 -1468 3 -1467 4 -125 22 c-491 89 -893
268 -1255 559 -128 103 -349 330 -443 456 -304 403 -479 863 -521 1360 -7 83
-11 598 -11 1473 l0 1344 1378 0 c867 0 1420 -4 1492 -10z"/>
</g>
</svg>
